{
	"patcher" : 	{
		"fileversion" : 1,
		"appversion" : 		{
			"major" : 7,
			"minor" : 3,
			"revision" : 5,
			"architecture" : "x64",
			"modernui" : 1
		}
,
		"rect" : [ 42.0, 79.0, 803.0, 235.0 ],
		"bglocked" : 0,
		"openinpresentation" : 0,
		"default_fontsize" : 12.0,
		"default_fontface" : 0,
		"default_fontname" : "Arial",
		"gridonopen" : 1,
		"gridsize" : [ 5.0, 5.0 ],
		"gridsnaponopen" : 1,
		"objectsnaponopen" : 1,
		"statusbarvisible" : 2,
		"toolbarvisible" : 1,
		"lefttoolbarpinned" : 0,
		"toptoolbarpinned" : 0,
		"righttoolbarpinned" : 0,
		"bottomtoolbarpinned" : 0,
		"toolbars_unpinned_last_save" : 0,
		"tallnewobj" : 0,
		"boxanimatetime" : 200,
		"enablehscroll" : 1,
		"enablevscroll" : 1,
		"devicewidth" : 0.0,
		"description" : "",
		"digest" : "",
		"tags" : "",
		"style" : "",
		"subpatcher_template" : "Default Max 7",
		"boxes" : [ 			{
				"box" : 				{
					"id" : "obj-82",
					"maxclass" : "nslider",
					"numinlets" : 2,
					"numoutlets" : 2,
					"outlettype" : [ "int", "int" ],
					"parameter_enable" : 0,
					"patching_rect" : [ 165.0, 750.0, 75.0, 198.0 ],
					"presentation" : 1,
					"presentation_rect" : [ 710.0, 15.0, 75.0, 198.0 ],
					"style" : ""
				}

			}
, 			{
				"box" : 				{
					"fontname" : "Arial",
					"fontsize" : 13.0,
					"id" : "obj-16",
					"maxclass" : "newobj",
					"numinlets" : 1,
					"numoutlets" : 1,
					"outlettype" : [ "bang" ],
					"patching_rect" : [ 1035.0, 273.0, 64.0, 23.0 ],
					"style" : "",
					"text" : "loadbang"
				}

			}
, 			{
				"box" : 				{
					"id" : "obj-80",
					"maxclass" : "button",
					"numinlets" : 1,
					"numoutlets" : 1,
					"outlettype" : [ "bang" ],
					"patching_rect" : [ 1035.0, 325.0, 24.0, 24.0 ],
					"style" : ""
				}

			}
, 			{
				"box" : 				{
					"fontname" : "Arial",
					"fontsize" : 13.0,
					"id" : "obj-23",
					"maxclass" : "newobj",
					"numinlets" : 1,
					"numoutlets" : 1,
					"outlettype" : [ "" ],
					"patching_rect" : [ 1035.0, 352.0, 48.0, 23.0 ],
					"style" : "",
					"text" : "fontlist"
				}

			}
, 			{
				"box" : 				{
					"fontname" : "Arial",
					"fontsize" : 13.0,
					"id" : "obj-97",
					"maxclass" : "newobj",
					"numinlets" : 1,
					"numoutlets" : 1,
					"outlettype" : [ "" ],
					"patching_rect" : [ 1035.0, 406.0, 74.0, 23.0 ],
					"style" : "",
					"text" : "tosymbol"
				}

			}
, 			{
				"box" : 				{
					"fontname" : "Arial",
					"fontsize" : 13.0,
					"id" : "obj-99",
					"maxclass" : "newobj",
					"numinlets" : 1,
					"numoutlets" : 1,
					"outlettype" : [ "" ],
					"patching_rect" : [ 1035.0, 434.0, 85.0, 23.0 ],
					"style" : "",
					"text" : "prepend font"
				}

			}
, 			{
				"box" : 				{
					"id" : "obj-100",
					"items" : [ "Apple Braille Outline 6 Dot", ",", "Apple Braille Outline 8 Dot", ",", "Apple Braille Pinpoint 6 Dot", ",", "Apple Braille Pinpoint 8 Dot", ",", "Apple Braille", ",", "Apple Color Emoji", ",", "Apple Symbols", ",", "Apple SD Gothic Neo Regular", ",", ".Apple SD Gothic NeoI Regular", ",", "Apple SD Gothic Neo Medium", ",", ".Apple SD Gothic NeoI Medium", ",", "Apple SD Gothic Neo SemiBold", ",", ".Apple SD Gothic NeoI SemiBold", ",", "Apple SD Gothic Neo Bold", ",", ".Apple SD Gothic NeoI Bold", ",", "Apple SD Gothic Neo Light", ",", ".Apple SD Gothic NeoI Light", ",", "Apple SD Gothic Neo Thin", ",", ".Apple SD Gothic NeoI Thin", ",", "Apple SD Gothic Neo UltraLight", ",", ".Apple SD Gothic NeoI UltraLight", ",", "Apple SD GothicNeo ExtraBold", ",", "Apple SD GothicNeo ExtraBold", ",", "Apple SD Gothic Neo Heavy", ",", ".Apple SD Gothic NeoI Heavy", ",", ".Aqua Kana", ",", "Arial Hebrew", ",", "Arial Hebrew Light", ",", ".Arial Hebrew Desk Interface", ",", ".Arial Hebrew Desk Interface Light", ",", "Arial Hebrew Scholar", ",", "Arial Hebrew Scholar Light", ",", "Avenir Next Condensed Bold", ",", "Avenir Next Condensed Demi Bold", ",", "Avenir Next Condensed Italic", ",", "Avenir Next Condensed Medium", ",", "Avenir Next Condensed Regular", ",", "Avenir Next Condensed Heavy", ",", "Avenir Next Condensed Ultra Light", ",", "Avenir Next Bold", ",", "Avenir Next Demi Bold", ",", "Avenir Next Italic", ",", "Avenir Next Medium", ",", "Avenir Next Regular", ",", "Avenir Next Heavy", ",", "Avenir Next Ultra Light", ",", "Avenir Book", ",", "Avenir Book Oblique", ",", "Avenir Black", ",", "Avenir Black Oblique", ",", "Avenir Heavy", ",", "Avenir Heavy Oblique", ",", "Avenir Light", ",", "Avenir Light Oblique", ",", "Avenir Medium", ",", "Avenir Medium Oblique", ",", "Avenir Oblique", ",", "Avenir Roman", ",", "Courier", ",", "Courier Oblique", ",", "Geeza Pro Regular", ",", "Geeza Pro Bold", ",", ".Geeza Pro Interface Regular", ",", ".Geeza Pro Interface Bold", ",", ".Geeza Pro Interface Light", ",", ".Geeza PUA", ",", "Geneva", ",", "Helvetica", ",", "Helvetica Oblique", ",", "Helvetica Light", ",", "Helvetica Light Oblique", ",", "Helvetica Neue", ",", "Helvetica Neue Condensed Bold", ",", "Helvetica Neue UltraLight", ",", "Helvetica Neue Light", ",", "Helvetica Neue Condensed Black", ",", "Helvetica Neue Medium", ",", "Helvetica Neue Thin", ",", ".Helvetica Neue DeskInterface Regular", ",", ".Helvetica Neue DeskInterface Bold", ",", ".Helvetica Neue DeskInterface Italic", ",", ".Helvetica Neue DeskInterface Medium P4", ",", ".Helvetica Neue DeskInterface Medium Italic P4", ",", ".Helvetica Neue DeskInterface Light", ",", ".Helvetica Neue DeskInterface Thin", ",", ".Helvetica Neue DeskInterface UltraLight", ",", ".Helvetica Neue DeskInterface Heavy", ",", "Hiragino Sans GB W3", ",", ".Hiragino Sans GB Interface W3", ",", "Hiragino Sans GB W6", ",", ".Hiragino Sans GB Interface W6", ",", ".Keyboard", ",", "Kohinoor Devanagari Regular", ",", "Kohinoor Devanagari Medium", ",", "Kohinoor Devanagari Semibold", ",", "Kohinoor Devanagari Bold", ",", "Kohinoor Devanagari Light", ",", "Kohinoor Bangla", ",", "Kohinoor Bangla Semibold", ",", "Kohinoor Bangla Medium", ",", "Kohinoor Bangla Light", ",", "Kohinoor Telugu", ",", "Kohinoor Telugu Semibold", ",", "Kohinoor Telugu Medium", ",", "Kohinoor Telugu Light", ",", ".LastResort", ",", "Lucida Grande", ",", ".Lucida Grande UI Regular", ",", ".Lucida Grande UI Bold", ",", "Marker Felt Thin", ",", "Marker Felt Wide", ",", "Menlo Regular", ",", "Menlo Bold", ",", "Menlo Italic", ",", "Monaco", ",", "Noteworthy Light", ",", "Noteworthy Bold", ",", "Optima Regular", ",", "Optima Bold", ",", "Optima Italic", ",", "Optima ExtraBlack", ",", "Palatino", ",", "PingFang HK Regular", ",", "PingFang TC Regular", ",", "PingFang SC Regular", ",", "PingFang HK Medium", ",", "PingFang TC Medium", ",", "PingFang SC Medium", ",", "PingFang HK Semibold", ",", "PingFang TC Semibold", ",", "PingFang SC Semibold", ",", "PingFang HK Light", ",", "PingFang TC Light", ",", "PingFang SC Light", ",", "PingFang HK Thin", ",", "PingFang TC Thin", ",", "PingFang SC Thin", ",", "PingFang HK Ultralight", ",", "PingFang TC Ultralight", ",", "PingFang SC Ultralight", ",", ".PingFang HK Regular", ",", ".PingFang TC Regular", ",", ".PingFang SC Regular", ",", ".PingFang HK Medium", ",", ".PingFang TC Medium", ",", ".PingFang SC Medium", ",", ".PingFang HK Semibold", ",", ".PingFang TC Semibold", ",", ".PingFang SC Semibold", ",", ".PingFang HK Light", ",", ".PingFang TC Light", ",", ".PingFang SC Light", ",", ".PingFang HK Thin", ",", ".PingFang TC Thin", ",", ".PingFang SC Thin", ",", ".PingFang HK Ultralight", ",", ".PingFang TC Ultralight", ",", ".PingFang SC Ultralight", ",", "System Font Black", ",", "System Font Bold", ",", "System Font Heavy", ",", "System Font Light", ",", "System Font Medium", ",", "System Font Regular", ",", "System Font Semibold", ",", "System Font Thin", ",", "System Font Ultralight", ",", "System Font Bold", ",", "System Font Bold G1", ",", "System Font Bold G2", ",", "System Font Bold G3", ",", "System Font Bold Italic G1", ",", "System Font Bold Italic G2", ",", "System Font Bold Italic G3", ",", "System Font Heavy", ",", "System Font Light", ",", "System Font Medium", ",", "System Font Regular", ",", "System Font Regular G1", ",", "System Font Regular G2", ",", "System Font Regular G3", ",", "System Font Italic", ",", "System Font Italic G1", ",", "System Font Italic G2", ",", "System Font Italic G3", ",", "System Font Semibold", ",", "Heiti TC Light", ",", "Heiti SC Light", ",", "Heiti TC Medium", ",", "Heiti SC Medium", ",", ".HeitiUI TC Thin", ",", ".HeitiUI SC Thin", ",", ".HeitiUI GB18030PUA Thin", ",", ".HeitiUI K Thin", ",", ".HeitiUI J Thin", ",", ".HeitiUI TC Ultra Light", ",", ".HeitiUI SC Ultra Light", ",", ".HeitiUI GB18030PUA Ultra Light", ",", ".HeitiUI K Ultra Light", ",", ".HeitiUI J Ultra Light", ",", "Symbol", ",", "Thonburi", ",", "Thonburi Light", ",", "Times Roman", ",", "Times Bold", ",", "Times Italic", ",", "Zapf Dingbats", ",", "Hiragino Mincho ProN W3", ",", "Hiragino Mincho Pro W3", ",", "Hiragino Mincho ProN W6", ",", "Hiragino Mincho Pro W6", ",", "Hiragino Sans W0", ",", ".Hiragino Kaku Gothic Interface W0", ",", "Hiragino Sans W1", ",", ".Hiragino Kaku Gothic Interface W1", ",", "Hiragino Sans W2", ",", ".Hiragino Kaku Gothic Interface W2", ",", "Hiragino Sans W3", ",", ".Hiragino Kaku Gothic Interface W3", ",", "Hiragino Kaku Gothic ProN W3", ",", "Hiragino Kaku Gothic Pro W3", ",", "Hiragino Sans W4", ",", ".Hiragino Kaku Gothic Interface W4", ",", "Hiragino Sans W5", ",", ".Hiragino Kaku Gothic Interface W5", ",", "Hiragino Sans W6", ",", ".Hiragino Kaku Gothic Interface W6", ",", "Hiragino Kaku Gothic ProN W6", ",", "Hiragino Kaku Gothic Pro W6", ",", "Hiragino Sans W7", ",", ".Hiragino Kaku Gothic Interface W7", ",", "Hiragino Sans W8", ",", ".Hiragino Kaku Gothic Interface W8", ",", "Hiragino Kaku Gothic Std W8", ",", "Hiragino Kaku Gothic StdN W8", ",", "Hiragino Sans W9", ",", ".Hiragino Kaku Gothic Interface W9", ",", "Adobe Caslon Pro", ",", "Adobe Caslon Pro Semibold", ",", "Adobe Arabic Bold", ",", "Adobe Arabic Italic", ",", "Adobe Arabic Regular", ",", "Adobe Devanagari", ",", "Adobe Fangsong Std R", ",", "Adobe Fan Heiti Std B", ",", "Adobe Gothic Std B", ",", "Adobe Hebrew Bold", ",", "Adobe Hebrew Italic", ",", "Adobe Hebrew Regular", ",", "Adobe Heiti Std R", ",", "Adobe Kaiti Std R", ",", "Adobe Ming Std L", ",", "Adobe Myungjo Std M", ",", "Adobe Naskh Medium", ",", "Adobe Song Std L", ",", "Adobe Garamond Pro", ",", "Aglaia Phonetic Symbol", ",", "Al Nile", ",", ".Al Nile PUA", ",", "Al Tarikh Regular", ",", ".Al Tarikh PUA", ",", "Al Bayan Plain", ",", ".Al Bayan PUA Plain", ",", "American Typewriter", ",", "American Typewriter Light", ",", "American Typewriter Condensed", ",", "American Typewriter Condensed Light", ",", "Andale Mono", ",", "Apple Chancery", ",", "AppleGothic Regular", ",", "AppleMyungjo Regular", ",", "Arial Black", ",", "Arial Narrow", ",", "Arial Rounded MT Bold", ",", "Arial Unicode MS", ",", "Athelas Regular", ",", "Athelas Italic", ",", "Athelas Bold", ",", "AyatoNumberA", ",", "Ayuthaya", ",", "Baghdad Regular", ",", ".Baghdad PUA", ",", "Bangla MN", ",", "Bangla Sangam MN", ",", "Baoli SC Regular", ",", "Baskerville", ",", "Baskerville SemiBold", ",", "Beirut Regular", ",", ".Beirut PUA", ",", "Big Caslon Medium", ",", "Birch Std", ",", "Blackoak Std", ",", "Bodoni 72 Oldstyle Book", ",", "Bodoni 72 Oldstyle Bold", ",", "Bodoni 72 Smallcaps Book", ",", "Bodoni 72 Book", ",", "Bodoni 72 Bold", ",", "Bodoni Ornaments", ",", "Bradley Hand Bold", ",", "Brush Script MT Italic", ",", "Brush Script Std Medium", ",", "Chaconne", ",", "Chalkboard", ",", "Chalkboard SE Light", ",", "Chalkboard SE Regular", ",", "Chalkboard SE Bold", ",", "Chalkduster", ",", "Chaparral Pro Light Italic", ",", "Chaparral Pro", ",", "Charlemagne Std Bold", ",", "Charter Roman", ",", "Charter Italic", ",", "Charter Bold", ",", "Charter Black", ",", "Cochin", ",", "Comic Sans MS", ",", "Cooper Std Black", ",", "Copperplate", ",", "Copperplate Light", ",", "Corsiva Hebrew", ",", "Courier New", ",", "Damascus Regular", ",", ".Damascus PUA", ",", "Damascus Light", ",", ".Damascus PUA Light", ",", "Damascus Medium", ",", ".Damascus PUA Medium", ",", "Damascus Bold", ",", "Damascus Semi Bold", ",", ".Damascus PUA Semi Bold", ",", "DecoType Naskh Regular", ",", ".DecoType Naskh PUA", ",", "Devanagari Sangam MN", ",", "Devanagari MT", ",", "Didot", ",", "DIN Alternate Bold", ",", "DIN Condensed Bold", ",", "Diwan Kufi Regular", ",", ".Diwan Kufi PUA", ",", "Diwan Thuluth Regular", ",", "Euphemia UCAS", ",", "Farah Regular", ",", ".Farah PUA", ",", "Farisi Regular", ",", "Futura Medium", ",", "Futura Condensed Medium", ",", "Futura Condensed ExtraBold", ",", "Georgia", ",", "Giddyup Std", ",", "Gill Sans", ",", "Gill Sans SemiBold", ",", "Gill Sans UltraBold", ",", "Gill Sans Light", ",", "Gujarati Sangam MN", ",", "Gujarati MT", ",", "GungSeo Regular", ",", "Gurmukhi MN", ",", "Gurmukhi Sangam MN", ",", "Gurmukhi MT", ",", "Hannotate SC Regular", ",", "Hannotate TC Regular", ",", "Hannotate SC Bold", ",", "Hannotate TC Bold", ",", "HanziPen SC Regular", ",", "HanziPen TC Regular", ",", "HanziPen SC Bold", ",", "HanziPen TC Bold", ",", "HeadLineA Regular", ",", "Herculanum", ",", "Hobo Std Medium", ",", "Hoefler Text Ornaments", ",", "Hoefler Text", ",", "Hoefler Text Black", ",", "Impact", ",", "InaiMathi", ",", "Iowan Old Style Roman", ",", "Iowan Old Style Bold", ",", "Iowan Old Style Italic", ",", "Iowan Old Style Black", ",", "Iowan Old Style Titling", ",", "ITF Devanagari Book", ",", "ITF Devanagari Bold", ",", "ITF Devanagari Demi", ",", "ITF Devanagari Light", ",", "ITF Devanagari Medium", ",", "ITF Devanagari Marathi Book", ",", "ITF Devanagari Marathi Bold", ",", "ITF Devanagari Marathi Demi", ",", "ITF Devanagari Marathi Light", ",", "ITF Devanagari Marathi Medium", ",", "Kailasa Regular", ",", "Kailasa Bold", ",", "Kaiti SC Black", ",", "Kaiti SC Bold", ",", "Kaiti TC Bold", ",", "Kaiti SC Regular", ",", "STKaiti", ",", "Kaiti TC Regular", ",", "Kannada MN", ",", "Kannada Sangam MN", ",", "Kefa Regular", ",", "Kefa Bold", ",", "Khmer MN", ",", "Khmer Sangam MN", ",", "Klee Demibold", ",", "Klee Medium", ",", "Kokonor Regular", ",", "Kozuka Gothic Pr6N B", ",", "Kozuka Gothic Pr6N EL", ",", "Kozuka Gothic Pr6N H", ",", "Kozuka Gothic Pr6N L", ",", "Kozuka Gothic Pr6N M", ",", "Kozuka Gothic Pr6N R", ",", "Kozuka Gothic Pro B", ",", "Kozuka Gothic Pro EL", ",", "Kozuka Gothic Pro H", ",", "Kozuka Gothic Pro L", ",", "Kozuka Gothic Pro M", ",", "Kozuka Gothic Pro R", ",", "Kozuka Mincho Pr6N B", ",", "Kozuka Mincho Pr6N EL", ",", "Kozuka Mincho Pr6N H", ",", "Kozuka Mincho Pr6N L", ",", "Kozuka Mincho Pr6N M", ",", "Kozuka Mincho Pr6N R", ",", "Kozuka Mincho Pro B", ",", "Kozuka Mincho Pro EL", ",", "Kozuka Mincho Pro H", ",", "Kozuka Mincho Pro L", ",", "Kozuka Mincho Pro M", ",", "Kozuka Mincho Pro R", ",", "Krungthep", ",", "KufiStandardGK Regular", ",", ".KufiStandardGK PUA", ",", "Lantinghei SC Demibold", ",", "Lantinghei SC Extralight", ",", "Lantinghei SC Heavy", ",", "Lantinghei TC Demibold", ",", "Lantinghei TC Extralight", ",", "Lantinghei TC Heavy", ",", "Lao MN", ",", "Lao Sangam MN", ",", "Letter Gothic Std Bold", ",", "Letter Gothic Std Bold Slanted", ",", "Letter Gothic Std Slanted", ",", "Letter Gothic Std Medium", ",", "Libian SC Regular", ",", "Lithos Pro Black", ",", "Lithos Pro", ",", "Luminari", ",", "Malayalam MN", ",", "Malayalam Sangam MN", ",", "Marion Regular", ",", "Marion Italic", ",", "Marion Bold", ",", "Mesquite Std Medium", ",", "Abadi MT Condensed Extra Bold", ",", "Abadi MT Condensed Light", ",", "Arial", ",", "Baskerville Old Face", ",", "Batang", ",", "Bauhaus 93", ",", "Bell MT", ",", "Bernard MT Condensed", ",", "Book Antiqua", ",", "Bookman Old Style", ",", "Bookshelf Symbol 7", ",", "Braggadocio", ",", "Britannic Bold", ",", "Calibri", ",", "Calibri Light", ",", "Calisto MT", ",", "Cambria Math", ",", "Cambria", ",", "Candara", ",", "Century", ",", "Century Gothic", ",", "Century Schoolbook", ",", "Colonna MT", ",", "Consolas", ",", "Constantia", ",", "Cooper Black", ",", "Copperplate Gothic Bold", ",", "Copperplate Gothic Light", ",", "Corbel", ",", "Curlz MT", ",", "Desdemona", ",", "Edwardian Script ITC", ",", "Engravers MT", ",", "Eurostile", ",", "Footlight MT Light", ",", "Franklin Gothic Book", ",", "Franklin Gothic Medium", ",", "Gabriola", ",", "Garamond", ",", "Gill Sans MT", ",", "Gloucester MT Extra Condensed", ",", "Goudy Old Style", ",", "Gulim", ",", "Haettenschweiler", ",", "Harrington", ",", "HGGothicE", ",", "HGPGothicE", ",", "HGSGothicE", ",", "HGMinchoE", ",", "HGPMinchoE", ",", "HGSMinchoE", ",", "HGSoeiKakugothicUB", ",", "HGPSoeiKakugothicUB", ",", "HGSSoeiKakugothicUB", ",", "HGMaruGothicMPRO", ",", "Microsoft Himalaya", ",", "Imprint MT Shadow", ",", "Kino MT", ",", "Lucida Blackletter", ",", "Lucida Bright", ",", "Lucida Bright Demibold", ",", "Lucida Calligraphy Italic", ",", "Lucida Console", ",", "Lucida Fax Regular", ",", "Lucida Fax Demibold", ",", "Lucida Fax Italic", ",", "Lucida Handwriting Italic", ",", "Lucida Sans Regular", ",", "Lucida Sans Demibold Roman", ",", "Lucida Sans Italic", ",", "Lucida Sans Demibold Italic", ",", "Lucida Sans Typewriter Regular", ",", "Lucida Sans Typewriter Bold", ",", "Lucida Sans Typewriter Oblique", ",", "Lucida Sans Typewriter Bold Oblique", ",", "Lucida Sans Unicode", ",", "Marlett", ",", "Matura MT Script Capitals", ",", "Meiryo", ",", "MingLiU-ExtB", ",", "MingLiU", ",", "MingLiU_HKSCS-ExtB", ",", "MingLiU_HKSCS", ",", "Mistral", ",", "Modern No. 20", ",", "Mongolian Baiti", ",", "Monotype Corsiva", ",", "Monotype Sorts", ",", "MS Gothic", ",", "MS Mincho", ",", "MS PGothic", ",", "MS PMincho", ",", "MS Reference Sans Serif", ",", "MS Reference Specialty", ",", "Microsoft Yi Baiti", ",", "MT Extra", ",", "News Gothic MT", ",", "Onyx", ",", "Palatino Linotype", ",", "Perpetua Titling MT Light", ",", "Perpetua Titling MT Bold", ",", "Perpetua", ",", "Playbill", ",", "PMingLiU-ExtB", ",", "PMingLiU", ",", "Rockwell", ",", "Rockwell Extra Bold", ",", "SimHei", ",", "SimSun-ExtB", ",", "SimSun", ",", "Stencil", ",", "Microsoft Tai Le", ",", "Times New Roman", ",", "Tw Cen MT", ",", "Verdana", ",", "Wide Latin", ",", "Wingdings 2", ",", "Wingdings 3", ",", "Wingdings", ",", "DFPKaiSho-Md", ",", "DFPKanTeiRyu-XB", ",", "DFPMaruGothic-SB", ",", "DFPKyoKaSho-W3", ",", "DFPSoKing-W3", ",", "DFPSNGyoSho-W5", ",", "DFPGyoSho-Lt", ",", "DFPLeiSho-SB", ",", "Microsoft Sans Serif", ",", "Minion Pro Bold Cond", ",", "Minion Pro Medium", ",", "Minion Pro", ",", "Minion Pro Semibold", ",", "Mishafi Gold Regular", ",", "Mishafi Regular", ",", "Mshtakan", ",", "Mshtakan Oblique", ",", "Muna Regular", ",", ".Muna PUA", ",", "Muna Bold", ",", "Muna Black", ",", ".Muna PUA Black", ",", "Myanmar MN", ",", "Myanmar Sangam MN", ",", "Myriad Arabic", ",", "Myriad Hebrew", ",", "Myriad Pro Bold Condensed", ",", "Myriad Pro Condensed", ",", "Myriad Pro", ",", "Myriad Pro Semibold", ",", "Nadeem Regular", ",", ".Nadeem PUA", ",", "NanumGothic", ",", "NanumGothic ExtraBold", ",", "NanumMyeongjo", ",", "NanumMyeongjo ExtraBold", ",", "Nanum Brush Script", ",", "Nanum Pen Script", ",", "New Peninim MT", ",", "New Peninim MT Inclined", ",", "New Peninim MT Bold Inclined", ",", "GB18030 Bitmap", ",", "Nueva Std Bold", ",", "Nueva Std Bold Condensed", ",", "Nueva Std Condensed", ",", "Nueva Std Italic", ",", "OCR A Std", ",", "Orator Std Slanted", ",", "Orator Std Medium", ",", "Oriya MN", ",", "Oriya Sangam MN", ",", "Osaka", ",", "Osaka-Mono", ",", "Papyrus Condensed", ",", "Papyrus", ",", "PCMyungjo Regular", ",", "Phosphate Inline", ",", "Phosphate Solid", ",", "PilGi Regular", ",", "Plantagenet Cherokee", ",", "Poplar Std Black", ",", "Prestige Elite Std Bold", ",", "PT Mono", ",", "PT Sans", ",", "PT Sans Narrow", ",", "PT Sans Caption", ",", "PT Serif", ",", "PT Serif Caption", ",", "Raanana", ",", "Rosewood Std", ",", "Sana Regular", ",", ".Sana PUA", ",", "Sathu", ",", "Savoye LET Plain:1.0", ",", "Savoye LET Plain CC.:1.0", ",", "Seravek", ",", "Seravek Medium", ",", "Seravek Light", ",", "Seravek ExtraLight", ",", "Shree Devanagari 714", ",", "SignPainter-HouseScript", ",", "Silom", ",", "Sinhala MN", ",", "Sinhala Sangam MN", ",", "Skia", ",", "Snell Roundhand", ",", "Snell Roundhand Black", ",", "Songti SC Black", ",", "Songti SC Bold", ",", "Songti TC Bold", ",", "Songti SC Light", ",", "STSong", ",", "Songti TC Light", ",", "Songti SC Regular", ",", "Songti TC Regular", ",", "Stencil Std Bold", ",", "STIXGeneral-Regular", ",", "STIXGeneral-Bold", ",", "STIXGeneral-BoldItalic", ",", "STIXGeneral-Italic", ",", "STIXIntegralsD-Bold", ",", "STIXIntegralsD-Regular", ",", "STIXIntegralsSm-Bold", ",", "STIXIntegralsSm-Regular", ",", "STIXIntegralsUp-Bold", ",", "STIXIntegralsUpD-Bold", ",", "STIXIntegralsUpD-Regular", ",", "STIXIntegralsUp-Regular", ",", "STIXIntegralsUpSm-Bold", ",", "STIXIntegralsUpSm-Regular", ",", "STIXNonUnicode-Regular", ",", "STIXNonUnicode-Bold", ",", "STIXNonUnicode-BoldItalic", ",", "STIXNonUnicode-Italic", ",", "STIXSizeFiveSym-Regular", ",", "STIXSizeFourSym-Bold", ",", "STIXSizeFourSym-Regular", ",", "STIXSizeOneSym-Bold", ",", "STIXSizeOneSym-Regular", ",", "STIXSizeThreeSym-Bold", ",", "STIXSizeThreeSym-Regular", ",", "STIXSizeTwoSym-Bold", ",", "STIXSizeTwoSym-Regular", ",", "STIXVariants-Regular", ",", "STIXVariants-Bold", ",", "Sukhumvit Set Thin", ",", "Sukhumvit Set Light", ",", "Sukhumvit Set Text", ",", "Sukhumvit Set Medium", ",", "Sukhumvit Set Semi Bold", ",", "Sukhumvit Set Bold", ",", "Superclarendon Regular", ",", "Superclarendon Italic", ",", "Superclarendon Light", ",", "Superclarendon Bold", ",", "Superclarendon Black", ",", "Tahoma", ",", "Tamil MN", ",", "Tamil Sangam MN", ",", "Tekton Pro Bold", ",", "Tekton Pro Bold Condensed", ",", "Tekton Pro Bold Extended", ",", "Tekton Pro Bold Oblique", ",", "Telugu MN", ",", "Telugu Sangam MN", ",", "Trajan Pro", ",", "Trattatello", ",", "Trebuchet MS", ",", "Tsukushi A Round Gothic Regular", ",", "Tsukushi A Round Gothic Bold", ",", "Tsukushi B Round Gothic Regular", ",", "Tsukushi B Round Gothic Bold", ",", "Waseem Regular", ",", "Waseem Light", ",", "Wawati SC Regular", ",", "Wawati TC Regular", ",", "Webdings", ",", "Weibei SC Bold", ",", "Weibei TC Bold", ",", "Xingkai SC Bold", ",", "Xingkai SC Light", ",", "YuGothic Bold", ",", "YuGothic Medium", ",", "Yuanti SC Bold", ",", "Yuanti TC Bold", ",", "Yuanti SC Light", ",", "Yuanti TC Light", ",", "Yuanti SC Regular", ",", "Yuanti TC Regular", ",", "YuMincho Medium", ",", "YuMincho Demibold", ",", "YuMincho +36p Kana Medium", ",", "YuMincho +36p Kana Demibold", ",", "Yuppy SC Regular", ",", "Yuppy TC Regular", ",", "Zapfino", ",", "Hiragino Maru Gothic Pro W4", ",", "Hiragino Maru Gothic ProN W4", ",", "LiSong Pro", ",", "LiHei Pro", ",", "STFangsong", ",", "STXihei", ",", "STHeiti", ",", "Broadway Copyist", ",", "Broadway Copyist Perc", ",", "Broadway Copyist Text", ",", "Broadway Copyist Text Ext", ",", "Engraver Font Extras", ",", "Engraver Font Set", ",", "Engraver Text H", ",", "Engraver Text NCS", ",", "Engraver Text T", ",", "Engraver Time", ",", "Finale AlphaNotes", ",", "Finale Copyist Text Ext", ",", "Finale Copyist Text", ",", "Finale Lyrics", ",", "Finale Mallets", ",", "Finale Numerics", ",", "Finale Percussion", ",", "Jazz", ",", "JazzCord", ",", "JazzPerc", ",", "JazzText Extended", ",", "JazzText", ",", "Kousaku Percussion", ",", "Kousaku", ",", "Maestro Percussion", ",", "Maestro Wide", ",", "Maestro", ",", "MaestroTimes", ",", "Petrucci", ",", "Rentaro", ",", "Seville Regular", ",", "Tamburo" ],
					"maxclass" : "umenu",
					"numinlets" : 1,
					"numoutlets" : 3,
					"outlettype" : [ "int", "", "" ],
					"parameter_enable" : 0,
					"patching_rect" : [ 1035.0, 378.0, 139.0, 22.0 ],
					"presentation" : 1,
					"presentation_rect" : [ 565.0, 20.0, 125.0, 22.0 ],
					"style" : ""
				}

			}
, 			{
				"box" : 				{
					"attr" : "fontsize",
					"id" : "obj-79",
					"maxclass" : "attrui",
					"numinlets" : 1,
					"numoutlets" : 1,
					"outlettype" : [ "" ],
					"patching_rect" : [ 707.0, 612.0, 268.0, 22.0 ],
					"style" : ""
				}

			}
, 			{
				"box" : 				{
					"id" : "obj-78",
					"maxclass" : "comment",
					"numinlets" : 1,
					"numoutlets" : 0,
					"patching_rect" : [ 410.0, 665.0, 55.0, 20.0 ],
					"presentation" : 1,
					"presentation_rect" : [ 565.0, 100.0, 60.5, 20.0 ],
					"style" : "",
					"text" : "Duration"
				}

			}
, 			{
				"box" : 				{
					"id" : "obj-77",
					"maxclass" : "comment",
					"numinlets" : 1,
					"numoutlets" : 0,
					"patching_rect" : [ 319.5, 665.0, 55.0, 20.0 ],
					"presentation" : 1,
					"presentation_rect" : [ 565.0, 75.0, 60.5, 20.0 ],
					"style" : "",
					"text" : "Velocity"
				}

			}
, 			{
				"box" : 				{
					"id" : "obj-76",
					"maxclass" : "comment",
					"numinlets" : 1,
					"numoutlets" : 0,
					"patching_rect" : [ 185.0, 598.0, 58.5, 20.0 ],
					"presentation" : 1,
					"presentation_rect" : [ 565.0, 50.0, 60.5, 20.0 ],
					"style" : "",
					"text" : "Oct Shift"
				}

			}
, 			{
				"box" : 				{
					"id" : "obj-73",
					"maxclass" : "newobj",
					"numinlets" : 1,
					"numoutlets" : 1,
					"outlettype" : [ "" ],
					"patching_rect" : [ 307.5, 629.5, 79.0, 22.0 ],
					"style" : "",
					"text" : "loadmess 96"
				}

			}
, 			{
				"box" : 				{
					"id" : "obj-63",
					"maxclass" : "comment",
					"numinlets" : 1,
					"numoutlets" : 0,
					"patching_rect" : [ 680.0, 388.0, 150.0, 20.0 ],
					"style" : "",
					"text" : "jit.pwindow named \"ptx\"",
					"textjustification" : 1
				}

			}
, 			{
				"box" : 				{
					"id" : "obj-44",
					"maxclass" : "comment",
					"numinlets" : 1,
					"numoutlets" : 0,
					"patching_rect" : [ 587.0, 95.0, 150.0, 20.0 ],
					"presentation" : 1,
					"presentation_rect" : [ 565.0, 125.0, 60.5, 20.0 ],
					"style" : "",
					"text" : "bpm"
				}

			}
, 			{
				"box" : 				{
					"id" : "obj-40",
					"maxclass" : "newobj",
					"numinlets" : 1,
					"numoutlets" : 1,
					"outlettype" : [ "" ],
					"patching_rect" : [ 601.0, 362.0, 102.0, 22.0 ],
					"style" : "",
					"text" : "expr 60/$f1*1000"
				}

			}
, 			{
				"box" : 				{
					"format" : 6,
					"id" : "obj-39",
					"maxclass" : "flonum",
					"numinlets" : 1,
					"numoutlets" : 2,
					"outlettype" : [ "", "bang" ],
					"parameter_enable" : 0,
					"patching_rect" : [ 601.0, 431.0, 50.0, 22.0 ],
					"style" : ""
				}

			}
, 			{
				"box" : 				{
					"id" : "obj-35",
					"maxclass" : "newobj",
					"numinlets" : 1,
					"numoutlets" : 1,
					"outlettype" : [ "" ],
					"patching_rect" : [ 601.0, 273.0, 85.0, 22.0 ],
					"style" : "",
					"text" : "loadmess 120"
				}

			}
, 			{
				"box" : 				{
					"format" : 6,
					"id" : "obj-32",
					"maxclass" : "flonum",
					"numinlets" : 1,
					"numoutlets" : 2,
					"outlettype" : [ "", "bang" ],
					"parameter_enable" : 0,
					"patching_rect" : [ 601.0, 322.0, 50.0, 22.0 ],
					"presentation" : 1,
					"presentation_rect" : [ 640.0, 125.0, 50.0, 22.0 ],
					"style" : ""
				}

			}
, 			{
				"box" : 				{
					"id" : "obj-28",
					"maxclass" : "kslider",
					"numinlets" : 2,
					"numoutlets" : 2,
					"outlettype" : [ "int", "int" ],
					"parameter_enable" : 0,
					"patching_rect" : [ 659.5, 550.0, 517.0, 49.0 ],
					"presentation" : 1,
					"presentation_rect" : [ 225.0, 165.0, 470.0, 45.0 ],
					"range" : 81,
					"style" : ""
				}

			}
, 			{
				"box" : 				{
					"id" : "obj-20",
					"maxclass" : "jit.pwindow",
					"name" : "ptx",
					"numinlets" : 1,
					"numoutlets" : 2,
					"outlettype" : [ "", "" ],
					"patching_rect" : [ 674.5, 410.0, 161.0, 117.0 ],
					"presentation" : 1,
					"presentation_rect" : [ 355.0, 20.0, 190.0, 125.0 ],
					"varname" : "ptx"
				}

			}
, 			{
				"box" : 				{
					"fontname" : "Arial",
					"fontsize" : 13.0,
					"id" : "obj-12",
					"maxclass" : "newobj",
					"numinlets" : 1,
					"numoutlets" : 2,
					"outlettype" : [ "bang", "" ],
					"patching_rect" : [ 707.0, 342.0, 96.0, 23.0 ],
					"style" : "",
					"text" : "jit.gl.render ptx"
				}

			}
, 			{
				"box" : 				{
					"fontname" : "Arial",
					"fontsize" : 13.0,
					"id" : "obj-13",
					"maxclass" : "newobj",
					"numinlets" : 1,
					"numoutlets" : 2,
					"outlettype" : [ "bang", "erase" ],
					"patching_rect" : [ 707.0, 297.0, 63.0, 23.0 ],
					"style" : "",
					"text" : "t b erase"
				}

			}
, 			{
				"box" : 				{
					"fontname" : "Arial",
					"fontsize" : 13.0,
					"id" : "obj-15",
					"maxclass" : "newobj",
					"numinlets" : 2,
					"numoutlets" : 1,
					"outlettype" : [ "bang" ],
					"patching_rect" : [ 707.0, 267.0, 71.0, 23.0 ],
					"style" : "",
					"text" : "qmetro 30"
				}

			}
, 			{
				"box" : 				{
					"id" : "obj-10",
					"maxclass" : "newobj",
					"numinlets" : 3,
					"numoutlets" : 1,
					"outlettype" : [ "int" ],
					"patching_rect" : [ 381.0, 563.5, 40.0, 22.0 ],
					"style" : "",
					"text" : "itoa"
				}

			}
, 			{
				"box" : 				{
					"id" : "obj-9",
					"maxclass" : "message",
					"numinlets" : 2,
					"numoutlets" : 1,
					"outlettype" : [ "" ],
					"patching_rect" : [ 607.5, 612.0, 47.0, 22.0 ],
					"style" : "",
					"text" : "text $1"
				}

			}
, 			{
				"box" : 				{
					"fontname" : "Verdana",
					"fontsize" : 12.0,
					"id" : "obj-5",
					"maxclass" : "newobj",
					"numinlets" : 1,
					"numoutlets" : 2,
					"outlettype" : [ "jit_matrix", "" ],
					"patching_rect" : [ 607.5, 653.0, 448.0, 23.0 ],
					"style" : "",
					"text" : "jit.gl.text ptx @color 1 1 1 1 @fontsize 100 @align 1 @anchor 0. -0.4 0."
				}

			}
, 			{
				"box" : 				{
					"id" : "obj-6",
					"maxclass" : "comment",
					"numinlets" : 1,
					"numoutlets" : 0,
					"patching_rect" : [ 486.0, 324.0, 72.0, 20.0 ],
					"presentation" : 1,
					"presentation_rect" : [ 30.0, 190.0, 72.0, 20.0 ],
					"style" : "",
					"text" : "3 Play Start"
				}

			}
, 			{
				"box" : 				{
					"id" : "obj-4",
					"maxclass" : "comment",
					"numinlets" : 1,
					"numoutlets" : 0,
					"patching_rect" : [ 277.0, 113.0, 72.0, 20.0 ],
					"presentation" : 1,
					"presentation_rect" : [ 26.0, 10.0, 72.0, 20.0 ],
					"style" : "",
					"text" : "1 Type Text"
				}

			}
, 			{
				"box" : 				{
					"id" : "obj-2",
					"maxclass" : "comment",
					"numinlets" : 1,
					"numoutlets" : 0,
					"patching_rect" : [ 102.0, 53.0, 72.0, 20.0 ],
					"presentation" : 1,
					"presentation_rect" : [ 29.0, 160.0, 72.0, 20.0 ],
					"style" : "",
					"text" : "2 set data"
				}

			}
, 			{
				"box" : 				{
					"id" : "obj-90",
					"maxclass" : "newobj",
					"numinlets" : 1,
					"numoutlets" : 2,
					"outlettype" : [ "", "int" ],
					"patching_rect" : [ 200.0, 345.0, 33.0, 22.0 ],
					"style" : "",
					"text" : "t s 0"
				}

			}
, 			{
				"box" : 				{
					"id" : "obj-89",
					"maxclass" : "newobj",
					"numinlets" : 2,
					"numoutlets" : 1,
					"outlettype" : [ "int" ],
					"patching_rect" : [ 243.5, 682.0, 38.0, 22.0 ],
					"style" : "",
					"text" : "+ -24"
				}

			}
, 			{
				"box" : 				{
					"id" : "obj-86",
					"maxclass" : "message",
					"numinlets" : 2,
					"numoutlets" : 1,
					"outlettype" : [ "" ],
					"patching_rect" : [ 533.0, 423.0, 37.0, 22.0 ],
					"style" : "",
					"text" : "set 0"
				}

			}
, 			{
				"box" : 				{
					"id" : "obj-84",
					"maxclass" : "newobj",
					"numinlets" : 1,
					"numoutlets" : 3,
					"outlettype" : [ "int", "bang", "bang" ],
					"patching_rect" : [ 456.0, 362.0, 96.0, 22.0 ],
					"style" : "",
					"text" : "t i b b"
				}

			}
, 			{
				"box" : 				{
					"id" : "obj-83",
					"maxclass" : "newobj",
					"numinlets" : 2,
					"numoutlets" : 2,
					"outlettype" : [ "", "" ],
					"patching_rect" : [ 200.0, 533.0, 55.0, 22.0 ],
					"style" : "",
					"text" : "route 32"
				}

			}
, 			{
				"box" : 				{
					"id" : "obj-75",
					"maxclass" : "number",
					"numinlets" : 1,
					"numoutlets" : 2,
					"outlettype" : [ "", "bang" ],
					"parameter_enable" : 0,
					"patching_rect" : [ 309.0, 689.0, 50.0, 22.0 ],
					"presentation" : 1,
					"presentation_rect" : [ 640.0, 75.0, 50.0, 22.0 ],
					"style" : ""
				}

			}
, 			{
				"box" : 				{
					"id" : "obj-71",
					"maxclass" : "newobj",
					"numinlets" : 2,
					"numoutlets" : 2,
					"outlettype" : [ "", "" ],
					"patching_rect" : [ 200.0, 502.0, 61.0, 22.0 ],
					"style" : "",
					"text" : "route set"
				}

			}
, 			{
				"box" : 				{
					"id" : "obj-66",
					"maxclass" : "newobj",
					"numinlets" : 3,
					"numoutlets" : 0,
					"patching_rect" : [ 267.0, 810.0, 187.0, 22.0 ],
					"style" : "",
					"text" : "noteout"
				}

			}
, 			{
				"box" : 				{
					"id" : "obj-65",
					"maxclass" : "newobj",
					"numinlets" : 3,
					"numoutlets" : 2,
					"outlettype" : [ "float", "float" ],
					"patching_rect" : [ 267.0, 729.0, 103.0, 22.0 ],
					"style" : "",
					"text" : "makenote 96 500"
				}

			}
, 			{
				"box" : 				{
					"id" : "obj-60",
					"maxclass" : "message",
					"numinlets" : 2,
					"numoutlets" : 1,
					"outlettype" : [ "" ],
					"patching_rect" : [ 456.0, 510.0, 46.0, 22.0 ],
					"style" : "",
					"text" : "line $1"
				}

			}
, 			{
				"box" : 				{
					"bgcolor" : [ 1.0, 0.165317, 0.508582, 1.0 ],
					"checkedcolor" : [ 0.0, 0.0, 0.0, 1.0 ],
					"id" : "obj-57",
					"maxclass" : "toggle",
					"numinlets" : 1,
					"numoutlets" : 1,
					"outlettype" : [ "int" ],
					"parameter_enable" : 0,
					"patching_rect" : [ 456.0, 324.0, 24.0, 24.0 ],
					"presentation" : 1,
					"presentation_rect" : [ 110.0, 190.0, 24.0, 24.0 ],
					"style" : "",
					"uncheckedcolor" : [ 1.0, 0.164706, 0.509804, 1.0 ]
				}

			}
, 			{
				"box" : 				{
					"id" : "obj-55",
					"maxclass" : "newobj",
					"numinlets" : 2,
					"numoutlets" : 1,
					"outlettype" : [ "bang" ],
					"patching_rect" : [ 456.0, 423.0, 65.0, 22.0 ],
					"style" : "",
					"text" : "metro 125"
				}

			}
, 			{
				"box" : 				{
					"id" : "obj-52",
					"maxclass" : "newobj",
					"numinlets" : 5,
					"numoutlets" : 4,
					"outlettype" : [ "int", "", "", "int" ],
					"patching_rect" : [ 456.0, 474.0, 81.0, 22.0 ],
					"style" : "",
					"text" : "counter 0 1 2"
				}

			}
, 			{
				"box" : 				{
					"id" : "obj-49",
					"maxclass" : "message",
					"numinlets" : 2,
					"numoutlets" : 1,
					"outlettype" : [ "" ],
					"patching_rect" : [ 388.0, 431.0, 41.0, 22.0 ],
					"style" : "",
					"text" : "query"
				}

			}
, 			{
				"box" : 				{
					"id" : "obj-47",
					"maxclass" : "toggle",
					"numinlets" : 1,
					"numoutlets" : 1,
					"outlettype" : [ "int" ],
					"parameter_enable" : 0,
					"patching_rect" : [ 150.0, 191.0, 24.0, 24.0 ],
					"style" : ""
				}

			}
, 			{
				"box" : 				{
					"bgcolor" : [ 1.0, 0.319714, 0.0, 1.0 ],
					"blinkcolor" : [ 0.960784, 0.827451, 0.156863, 1.0 ],
					"id" : "obj-45",
					"maxclass" : "button",
					"numinlets" : 1,
					"numoutlets" : 1,
					"outlettype" : [ "bang" ],
					"patching_rect" : [ 104.0, 78.0, 24.0, 24.0 ],
					"presentation" : 1,
					"presentation_rect" : [ 110.0, 160.0, 24.0, 24.0 ],
					"style" : ""
				}

			}
, 			{
				"box" : 				{
					"id" : "obj-43",
					"maxclass" : "newobj",
					"numinlets" : 1,
					"numoutlets" : 4,
					"outlettype" : [ "int", "bang", "int", "clear" ],
					"patching_rect" : [ 150.0, 111.0, 73.0, 22.0 ],
					"style" : "",
					"text" : "t 0 b 1 clear"
				}

			}
, 			{
				"box" : 				{
					"id" : "obj-42",
					"maxclass" : "newobj",
					"numinlets" : 2,
					"numoutlets" : 1,
					"outlettype" : [ "" ],
					"patching_rect" : [ 218.0, 244.0, 34.0, 22.0 ],
					"style" : "",
					"text" : "gate"
				}

			}
, 			{
				"box" : 				{
					"id" : "obj-36",
					"maxclass" : "newobj",
					"numinlets" : 2,
					"numoutlets" : 2,
					"outlettype" : [ "", "" ],
					"patching_rect" : [ 218.0, 308.0, 68.0, 22.0 ],
					"style" : "",
					"text" : "route bang"
				}

			}
, 			{
				"box" : 				{
					"id" : "obj-31",
					"maxclass" : "newobj",
					"numinlets" : 1,
					"numoutlets" : 2,
					"outlettype" : [ "cr", "int" ],
					"patching_rect" : [ 267.0, 410.0, 33.0, 22.0 ],
					"style" : "",
					"text" : "t cr i"
				}

			}
, 			{
				"box" : 				{
					"id" : "obj-30",
					"maxclass" : "newobj",
					"numinlets" : 1,
					"numoutlets" : 3,
					"outlettype" : [ "", "bang", "int" ],
					"patching_rect" : [ 200.0, 474.0, 100.0, 22.0 ],
					"style" : "",
					"text" : "text"
				}

			}
, 			{
				"box" : 				{
					"id" : "obj-24",
					"maxclass" : "newobj",
					"numinlets" : 2,
					"numoutlets" : 2,
					"outlettype" : [ "", "" ],
					"patching_rect" : [ 267.0, 378.0, 49.0, 22.0 ],
					"style" : "",
					"text" : "zl iter 1"
				}

			}
, 			{
				"box" : 				{
					"id" : "obj-21",
					"maxclass" : "newobj",
					"numinlets" : 3,
					"numoutlets" : 1,
					"outlettype" : [ "list" ],
					"patching_rect" : [ 267.0, 341.0, 40.0, 22.0 ],
					"style" : "",
					"text" : "atoi"
				}

			}
, 			{
				"box" : 				{
					"id" : "obj-8",
					"maxclass" : "newobj",
					"numinlets" : 2,
					"numoutlets" : 2,
					"outlettype" : [ "", "" ],
					"patching_rect" : [ 218.0, 277.0, 61.0, 22.0 ],
					"style" : "",
					"text" : "route text"
				}

			}
, 			{
				"box" : 				{
					"id" : "obj-3",
					"keymode" : 1,
					"maxclass" : "textedit",
					"numinlets" : 1,
					"numoutlets" : 4,
					"outlettype" : [ "", "int", "", "" ],
					"parameter_enable" : 0,
					"patching_rect" : [ 233.0, 143.5, 305.0, 80.0 ],
					"presentation" : 1,
					"presentation_rect" : [ 30.0, 35.0, 315.0, 110.0 ],
					"style" : "",
					"tabmode" : 0,
					"text" : "Hardware has no limits with Max."
				}

			}
, 			{
				"box" : 				{
					"id" : "obj-68",
					"maxclass" : "newobj",
					"numinlets" : 1,
					"numoutlets" : 1,
					"outlettype" : [ "" ],
					"patching_rect" : [ 395.0, 635.0, 85.0, 22.0 ],
					"style" : "",
					"text" : "loadmess 500"
				}

			}
, 			{
				"box" : 				{
					"id" : "obj-61",
					"maxclass" : "newobj",
					"numinlets" : 2,
					"numoutlets" : 1,
					"outlettype" : [ "int" ],
					"patching_rect" : [ 262.5, 629.5, 32.0, 22.0 ],
					"style" : "",
					"text" : "* 12"
				}

			}
, 			{
				"box" : 				{
					"id" : "obj-59",
					"maxclass" : "number",
					"numinlets" : 1,
					"numoutlets" : 2,
					"outlettype" : [ "", "bang" ],
					"parameter_enable" : 0,
					"patching_rect" : [ 262.5, 598.0, 50.0, 22.0 ],
					"presentation" : 1,
					"presentation_rect" : [ 640.0, 50.0, 50.0, 22.0 ],
					"style" : ""
				}

			}
, 			{
				"box" : 				{
					"id" : "obj-53",
					"maxclass" : "newobj",
					"numinlets" : 1,
					"numoutlets" : 1,
					"outlettype" : [ "" ],
					"patching_rect" : [ 262.5, 563.5, 76.0, 22.0 ],
					"style" : "",
					"text" : "loadmess -2"
				}

			}
, 			{
				"box" : 				{
					"format" : 6,
					"id" : "obj-51",
					"maxclass" : "flonum",
					"numinlets" : 1,
					"numoutlets" : 2,
					"outlettype" : [ "", "bang" ],
					"parameter_enable" : 0,
					"patching_rect" : [ 395.0, 689.0, 50.0, 22.0 ],
					"presentation" : 1,
					"presentation_rect" : [ 640.0, 100.0, 50.0, 22.0 ],
					"style" : ""
				}

			}
 ],
		"lines" : [ 			{
				"patchline" : 				{
					"destination" : [ "obj-9", 0 ],
					"midpoints" : [ 390.5, 600.75, 617.0, 600.75 ],
					"source" : [ "obj-10", 0 ]
				}

			}
, 			{
				"patchline" : 				{
					"destination" : [ "obj-97", 0 ],
					"midpoints" : [ 1104.5, 400.0, 1044.5, 400.0 ],
					"source" : [ "obj-100", 1 ]
				}

			}
, 			{
				"patchline" : 				{
					"destination" : [ "obj-12", 0 ],
					"midpoints" : [ 760.5, 330.5, 716.5, 330.5 ],
					"source" : [ "obj-13", 1 ]
				}

			}
, 			{
				"patchline" : 				{
					"destination" : [ "obj-12", 0 ],
					"source" : [ "obj-13", 0 ]
				}

			}
, 			{
				"patchline" : 				{
					"destination" : [ "obj-13", 0 ],
					"source" : [ "obj-15", 0 ]
				}

			}
, 			{
				"patchline" : 				{
					"destination" : [ "obj-80", 0 ],
					"source" : [ "obj-16", 0 ]
				}

			}
, 			{
				"patchline" : 				{
					"destination" : [ "obj-24", 0 ],
					"source" : [ "obj-21", 0 ]
				}

			}
, 			{
				"patchline" : 				{
					"destination" : [ "obj-100", 0 ],
					"source" : [ "obj-23", 0 ]
				}

			}
, 			{
				"patchline" : 				{
					"destination" : [ "obj-31", 0 ],
					"source" : [ "obj-24", 0 ]
				}

			}
, 			{
				"patchline" : 				{
					"destination" : [ "obj-42", 1 ],
					"source" : [ "obj-3", 0 ]
				}

			}
, 			{
				"patchline" : 				{
					"destination" : [ "obj-52", 4 ],
					"midpoints" : [ 290.5, 506.0, 402.5, 506.0, 402.5, 468.0, 527.5, 468.0 ],
					"source" : [ "obj-30", 2 ]
				}

			}
, 			{
				"patchline" : 				{
					"destination" : [ "obj-71", 0 ],
					"source" : [ "obj-30", 0 ]
				}

			}
, 			{
				"patchline" : 				{
					"destination" : [ "obj-30", 0 ],
					"midpoints" : [ 290.5, 452.5, 209.5, 452.5 ],
					"source" : [ "obj-31", 1 ]
				}

			}
, 			{
				"patchline" : 				{
					"destination" : [ "obj-30", 0 ],
					"midpoints" : [ 276.5, 452.5, 209.5, 452.5 ],
					"source" : [ "obj-31", 0 ]
				}

			}
, 			{
				"patchline" : 				{
					"destination" : [ "obj-40", 0 ],
					"source" : [ "obj-32", 0 ]
				}

			}
, 			{
				"patchline" : 				{
					"destination" : [ "obj-32", 0 ],
					"source" : [ "obj-35", 0 ]
				}

			}
, 			{
				"patchline" : 				{
					"destination" : [ "obj-21", 0 ],
					"source" : [ "obj-36", 1 ]
				}

			}
, 			{
				"patchline" : 				{
					"destination" : [ "obj-39", 0 ],
					"order" : 0,
					"source" : [ "obj-40", 0 ]
				}

			}
, 			{
				"patchline" : 				{
					"destination" : [ "obj-55", 1 ],
					"midpoints" : [ 610.5, 403.0, 511.5, 403.0 ],
					"order" : 1,
					"source" : [ "obj-40", 0 ]
				}

			}
, 			{
				"patchline" : 				{
					"destination" : [ "obj-8", 0 ],
					"source" : [ "obj-42", 0 ]
				}

			}
, 			{
				"patchline" : 				{
					"destination" : [ "obj-3", 0 ],
					"midpoints" : [ 177.5, 137.75, 242.5, 137.75 ],
					"source" : [ "obj-43", 1 ]
				}

			}
, 			{
				"patchline" : 				{
					"destination" : [ "obj-47", 0 ],
					"midpoints" : [ 195.5, 161.5, 159.5, 161.5 ],
					"source" : [ "obj-43", 2 ]
				}

			}
, 			{
				"patchline" : 				{
					"destination" : [ "obj-47", 0 ],
					"source" : [ "obj-43", 0 ]
				}

			}
, 			{
				"patchline" : 				{
					"destination" : [ "obj-90", 0 ],
					"source" : [ "obj-43", 3 ]
				}

			}
, 			{
				"patchline" : 				{
					"destination" : [ "obj-43", 0 ],
					"source" : [ "obj-45", 0 ]
				}

			}
, 			{
				"patchline" : 				{
					"destination" : [ "obj-42", 0 ],
					"source" : [ "obj-47", 0 ]
				}

			}
, 			{
				"patchline" : 				{
					"destination" : [ "obj-30", 0 ],
					"source" : [ "obj-49", 0 ]
				}

			}
, 			{
				"patchline" : 				{
					"destination" : [ "obj-65", 2 ],
					"source" : [ "obj-51", 0 ]
				}

			}
, 			{
				"patchline" : 				{
					"destination" : [ "obj-60", 0 ],
					"source" : [ "obj-52", 0 ]
				}

			}
, 			{
				"patchline" : 				{
					"destination" : [ "obj-59", 0 ],
					"source" : [ "obj-53", 0 ]
				}

			}
, 			{
				"patchline" : 				{
					"destination" : [ "obj-52", 0 ],
					"source" : [ "obj-55", 0 ]
				}

			}
, 			{
				"patchline" : 				{
					"destination" : [ "obj-15", 0 ],
					"midpoints" : [ 465.5, 358.0, 591.0, 358.0, 591.0, 256.0, 716.5, 256.0 ],
					"order" : 0,
					"source" : [ "obj-57", 0 ]
				}

			}
, 			{
				"patchline" : 				{
					"destination" : [ "obj-84", 0 ],
					"order" : 1,
					"source" : [ "obj-57", 0 ]
				}

			}
, 			{
				"patchline" : 				{
					"destination" : [ "obj-61", 0 ],
					"source" : [ "obj-59", 0 ]
				}

			}
, 			{
				"patchline" : 				{
					"destination" : [ "obj-30", 0 ],
					"midpoints" : [ 465.5, 542.0, 337.5, 542.0, 337.5, 463.0, 209.5, 463.0 ],
					"source" : [ "obj-60", 0 ]
				}

			}
, 			{
				"patchline" : 				{
					"destination" : [ "obj-89", 1 ],
					"source" : [ "obj-61", 0 ]
				}

			}
, 			{
				"patchline" : 				{
					"destination" : [ "obj-28", 0 ],
					"midpoints" : [ 276.5, 758.0, 439.25, 758.0, 439.25, 544.0, 669.0, 544.0 ],
					"order" : 0,
					"source" : [ "obj-65", 0 ]
				}

			}
, 			{
				"patchline" : 				{
					"destination" : [ "obj-66", 1 ],
					"source" : [ "obj-65", 1 ]
				}

			}
, 			{
				"patchline" : 				{
					"destination" : [ "obj-66", 0 ],
					"order" : 1,
					"source" : [ "obj-65", 0 ]
				}

			}
, 			{
				"patchline" : 				{
					"destination" : [ "obj-51", 0 ],
					"source" : [ "obj-68", 0 ]
				}

			}
, 			{
				"patchline" : 				{
					"destination" : [ "obj-83", 0 ],
					"source" : [ "obj-71", 0 ]
				}

			}
, 			{
				"patchline" : 				{
					"destination" : [ "obj-75", 0 ],
					"source" : [ "obj-73", 0 ]
				}

			}
, 			{
				"patchline" : 				{
					"destination" : [ "obj-65", 1 ],
					"source" : [ "obj-75", 0 ]
				}

			}
, 			{
				"patchline" : 				{
					"destination" : [ "obj-5", 0 ],
					"source" : [ "obj-79", 0 ]
				}

			}
, 			{
				"patchline" : 				{
					"destination" : [ "obj-36", 0 ],
					"source" : [ "obj-8", 0 ]
				}

			}
, 			{
				"patchline" : 				{
					"destination" : [ "obj-23", 0 ],
					"source" : [ "obj-80", 0 ]
				}

			}
, 			{
				"patchline" : 				{
					"destination" : [ "obj-10", 0 ],
					"midpoints" : [ 245.5, 558.75, 390.5, 558.75 ],
					"order" : 0,
					"source" : [ "obj-83", 1 ]
				}

			}
, 			{
				"patchline" : 				{
					"destination" : [ "obj-89", 0 ],
					"midpoints" : [ 245.5, 599.5, 253.0, 599.5 ],
					"order" : 1,
					"source" : [ "obj-83", 1 ]
				}

			}
, 			{
				"patchline" : 				{
					"destination" : [ "obj-49", 0 ],
					"midpoints" : [ 504.0, 407.0, 397.5, 407.0 ],
					"source" : [ "obj-84", 1 ]
				}

			}
, 			{
				"patchline" : 				{
					"destination" : [ "obj-55", 0 ],
					"source" : [ "obj-84", 0 ]
				}

			}
, 			{
				"patchline" : 				{
					"destination" : [ "obj-86", 0 ],
					"source" : [ "obj-84", 2 ]
				}

			}
, 			{
				"patchline" : 				{
					"destination" : [ "obj-52", 0 ],
					"midpoints" : [ 542.5, 459.0, 465.5, 459.0 ],
					"source" : [ "obj-86", 0 ]
				}

			}
, 			{
				"patchline" : 				{
					"destination" : [ "obj-65", 0 ],
					"midpoints" : [ 253.0, 716.0, 276.5, 716.0 ],
					"order" : 0,
					"source" : [ "obj-89", 0 ]
				}

			}
, 			{
				"patchline" : 				{
					"destination" : [ "obj-82", 0 ],
					"midpoints" : [ 253.0, 726.5, 174.5, 726.5 ],
					"order" : 1,
					"source" : [ "obj-89", 0 ]
				}

			}
, 			{
				"patchline" : 				{
					"destination" : [ "obj-5", 0 ],
					"source" : [ "obj-9", 0 ]
				}

			}
, 			{
				"patchline" : 				{
					"destination" : [ "obj-30", 0 ],
					"source" : [ "obj-90", 0 ]
				}

			}
, 			{
				"patchline" : 				{
					"destination" : [ "obj-57", 0 ],
					"midpoints" : [ 223.5, 377.0, 344.5, 377.0, 344.5, 313.0, 465.5, 313.0 ],
					"source" : [ "obj-90", 1 ]
				}

			}
, 			{
				"patchline" : 				{
					"destination" : [ "obj-99", 0 ],
					"source" : [ "obj-97", 0 ]
				}

			}
, 			{
				"patchline" : 				{
					"destination" : [ "obj-5", 0 ],
					"midpoints" : [ 1044.5, 642.5, 617.0, 642.5 ],
					"source" : [ "obj-99", 0 ]
				}

			}
 ],
		"dependency_cache" : [  ],
		"autosave" : 0,
		"bgfillcolor_type" : "gradient",
		"bgfillcolor_color1" : [ 0.376471, 0.384314, 0.4, 1.0 ],
		"bgfillcolor_color2" : [ 0.290196, 0.309804, 0.301961, 1.0 ],
		"bgfillcolor_color" : [ 0.290196, 0.309804, 0.301961, 1.0 ],
		"bgfillcolor_angle" : 270.0,
		"bgfillcolor_proportion" : 0.39
	}

}
