{
	"patcher" : 	{
		"fileversion" : 1,
		"appversion" : 		{
			"major" : 6,
			"minor" : 0,
			"revision" : 7
		}
,
		"rect" : [ 234.0, 239.0, 562.0, 300.0 ],
		"bglocked" : 0,
		"openinpresentation" : 0,
		"default_fontsize" : 12.0,
		"default_fontface" : 0,
		"default_fontname" : "Arial",
		"gridonopen" : 0,
		"gridsize" : [ 15.0, 15.0 ],
		"gridsnaponopen" : 0,
		"statusbarvisible" : 2,
		"toolbarvisible" : 1,
		"boxanimatetime" : 200,
		"imprint" : 0,
		"enablehscroll" : 1,
		"enablevscroll" : 1,
		"devicewidth" : 0.0,
		"description" : "",
		"digest" : "",
		"tags" : "",
		"boxes" : [ 			{
				"box" : 				{
					"fontname" : "Arial",
					"fontsize" : 16.0,
					"frgb" : 0.0,
					"id" : "obj-9",
					"maxclass" : "comment",
					"numinlets" : 1,
					"numoutlets" : 0,
					"patching_rect" : [ 323.0, 191.0, 225.0, 24.0 ],
					"text" : "centimeters/second/second"
				}

			}
, 			{
				"box" : 				{
					"fontname" : "Arial",
					"fontsize" : 16.0,
					"frgb" : 0.0,
					"id" : "obj-8",
					"maxclass" : "comment",
					"numinlets" : 1,
					"numoutlets" : 0,
					"patching_rect" : [ 212.0, 86.0, 119.0, 24.0 ],
					"text" : "kilograms"
				}

			}
, 			{
				"box" : 				{
					"fontname" : "Arial",
					"fontsize" : 16.0,
					"frgb" : 0.0,
					"id" : "obj-7",
					"maxclass" : "comment",
					"numinlets" : 1,
					"numoutlets" : 0,
					"patching_rect" : [ 275.0, 52.0, 114.0, 24.0 ],
					"text" : "centimeters"
				}

			}
, 			{
				"box" : 				{
					"fontname" : "Arial",
					"fontsize" : 12.0,
					"id" : "obj-5",
					"maxclass" : "newobj",
					"numinlets" : 1,
					"numoutlets" : 2,
					"outlettype" : [ "", "" ],
					"patching_rect" : [ 33.0, 244.0, 80.0, 20.0 ],
					"text" : "jit.phys.world"
				}

			}
, 			{
				"box" : 				{
					"attr" : "gravity",
					"fontname" : "Arial",
					"fontsize" : 16.0,
					"id" : "obj-4",
					"maxclass" : "attrui",
					"numinlets" : 1,
					"numoutlets" : 1,
					"outlettype" : [ "" ],
					"patching_rect" : [ 40.0, 191.0, 283.0, 24.0 ]
				}

			}
, 			{
				"box" : 				{
					"attr" : "scale",
					"fontname" : "Arial",
					"fontsize" : 16.0,
					"id" : "obj-3",
					"maxclass" : "attrui",
					"numinlets" : 1,
					"numoutlets" : 1,
					"outlettype" : [ "" ],
					"patching_rect" : [ 40.0, 52.0, 228.0, 24.0 ]
				}

			}
, 			{
				"box" : 				{
					"attr" : "mass",
					"fontname" : "Arial",
					"fontsize" : 16.0,
					"id" : "obj-2",
					"maxclass" : "attrui",
					"numinlets" : 1,
					"numoutlets" : 1,
					"outlettype" : [ "" ],
					"patching_rect" : [ 55.0, 86.0, 154.0, 24.0 ]
				}

			}
, 			{
				"box" : 				{
					"fontname" : "Arial",
					"fontsize" : 12.0,
					"id" : "obj-1",
					"maxclass" : "newobj",
					"numinlets" : 1,
					"numoutlets" : 2,
					"outlettype" : [ "", "" ],
					"patching_rect" : [ 33.0, 122.0, 77.0, 20.0 ],
					"text" : "jit.phys.body"
				}

			}
 ],
		"lines" : [ 			{
				"patchline" : 				{
					"destination" : [ "obj-1", 0 ],
					"disabled" : 0,
					"hidden" : 0,
					"source" : [ "obj-2", 0 ]
				}

			}
, 			{
				"patchline" : 				{
					"destination" : [ "obj-1", 0 ],
					"disabled" : 0,
					"hidden" : 0,
					"source" : [ "obj-3", 0 ]
				}

			}
, 			{
				"patchline" : 				{
					"destination" : [ "obj-5", 0 ],
					"disabled" : 0,
					"hidden" : 0,
					"source" : [ "obj-4", 0 ]
				}

			}
 ],
		"dependency_cache" : [  ]
	}

}
